<?xml version="1.0" encoding="utf-8"?>
<!-- Generator: Adobe Illustrator 17.0.0, SVG Export Plug-In . SVG Version: 6.00 Build 0)  -->
<!DOCTYPE svg PUBLIC "-//W3C//DTD SVG 1.1//EN" "http://www.w3.org/Graphics/SVG/1.1/DTD/svg11.dtd">
<svg version="1.1" id="Layer_1" xmlns="http://www.w3.org/2000/svg" xmlns:xlink="http://www.w3.org/1999/xlink" x="0px" y="0px"
	 width="800px" height="329.545px" viewBox="0 0 800 329.545" enable-background="new 0 0 800 329.545" xml:space="preserve">
<rect y="0" fill="#3E3E54" width="800" height="329.545"/>
<g>
	<g>
		<path fill="#FFFFFF" d="M444.219,134.545h-17.147c-3.377,0-6.755,2.931-7.507,6.223l-14.402,63.208
			c-0.752,3.292-1.982,3.352-2.733,0.059l-14.402-63.297c-0.752-3.292-4.13-6.194-7.507-6.194h-25.901
			c-3.377,0-6.761,2.929-7.521,6.22l-14.56,63.214c-0.759,3.291-1.996,3.348-2.747,0.056l-14.402-63.297
			c-0.752-3.292-4.13-6.194-7.507-6.194h-17.334c-3.377,0-5.509,2.927-4.739,6.215l18.988,81.396
			c0.771,3.288,4.165,6.389,7.542,6.389h32.421c3.377,0,6.77-2.983,7.539-6.271l13.591-58.22c0.77-3.288,2.036-3.363,2.814-0.077
			l13.748,58.337c0.778,3.286,4.177,6.231,7.555,6.231h32.234c3.377,0,6.776-2.981,7.553-6.268l19.151-81.373
			C449.723,137.618,447.596,134.545,444.219,134.545z"/>
		<path fill="#FFFFFF" d="M547.801,184.545c4.221,0,13.688,0,13.688,0s5.819,0.719,5.042-3.452l-9.196-40.421
			c-0.752-3.292-4.13-6.126-7.507-6.126h-25.901c-3.377,0-6.761,2.929-7.521,6.22l-14.56,63.214
			c-0.759,3.291-1.996,3.348-2.747,0.056l-14.402-63.297c-0.752-3.292-4.13-6.194-7.507-6.194h-17.334
			c-3.377,0-5.509,2.927-4.739,6.215l18.988,81.396c0.771,3.288,4.165,6.389,7.542,6.389h32.421c3.377,0,6.77-2.983,7.539-6.271
			l13.591-58.22c0.77-3.288,2.036-3.363,2.814-0.077l4.145,17.476l0.126,0.143C542.284,181.597,542.94,184.545,547.801,184.545z"/>
	</g>
	<g>
		<path fill="#FFFFFF" d="M179.877,227.96c-3.377,0-6.14-2.763-6.14-6.14V107.449c0-3.377,2.763-6.14,6.14-6.14h90.159
			c3.377,0,6.14,2.763,6.14,6.14v8.952c0,3.377-2.763,6.14-6.14,6.14h-56.26c-3.377,0-6.14,2.763-6.14,6.14v18.824
			c0,3.377,2.763,6.14,6.14,6.14h50.487c3.377,0,6.14,2.763,6.14,6.14v7.276c0,3.377-2.763,6.14-6.14,6.14h-50.487
			c-3.377,0-6.14,2.763-6.14,6.14v21.245c0,3.377,2.763,6.14,6.14,6.14h57.565c3.377,0,6.14,2.763,6.14,6.14v8.952
			c0,3.377-2.763,6.14-6.14,6.14H179.877z"/>
	</g>
	<path fill="#A3C136" d="M621.376,135.02h-17.147c-3.377,0-6.755,2.694-7.507,5.986l-22.251,63.089
		c-0.751,3.292-1.981,3.292-2.733,0l-1.362-5.964c-1.109-4.454-6.439-4.454-6.439-4.454s-7.547,0-13.56,0
		c-4.361,0-4.488,2.964-4.23,4.596l5.612,23.711c0.778,3.286,4.177,5.975,7.555,5.975h32.234c3.377,0,6.776-2.689,7.553-5.975
		l27.001-80.99C626.881,137.708,624.753,135.02,621.376,135.02z"/>
</g>
</svg>
