<?xml version="1.0" encoding="utf-8"?>
<!-- Generator: Adobe Illustrator 18.0.0, SVG Export Plug-In . SVG Version: 6.00 Build 0)  -->
<!DOCTYPE svg PUBLIC "-//W3C//DTD SVG 1.1//EN" "http://www.w3.org/Graphics/SVG/1.1/DTD/svg11.dtd">
<svg version="1.1" id="Layer_1" xmlns="http://www.w3.org/2000/svg" xmlns:xlink="http://www.w3.org/1999/xlink" x="0px" y="0px"
	 viewBox="173.7 101.3 452.5 127.2" enable-background="new 173.7 101.3 452.5 127.2" xml:space="preserve">
<g>
	<g>
		<path fill="#3E3E54" d="M444.2,134.5h-17.1c-3.4,0-6.8,2.9-7.5,6.2L405.2,204c-0.8,3.3-2,3.4-2.7,0.1L388,140.7
			c-0.8-3.3-4.1-6.2-7.5-6.2h-25.9c-3.4,0-6.8,2.9-7.5,6.2L332.5,204c-0.8,3.3-2,3.3-2.7,0.1l-14.4-63.3c-0.8-3.3-4.1-6.2-7.5-6.2
			h-17.3c-3.4,0-5.5,2.9-4.7,6.2l19,81.4c0.8,3.3,4.2,6.4,7.5,6.4h32.4c3.4,0,6.8-3,7.5-6.3l13.6-58.2c0.8-3.3,2-3.4,2.8-0.1
			l13.7,58.3c0.8,3.3,4.2,6.2,7.6,6.2h32.2c3.4,0,6.8-3,7.6-6.3l19.2-81.4C449.7,137.6,447.6,134.5,444.2,134.5z"/>
		<path fill="#3E3E54" d="M547.8,184.5c4.2,0,13.7,0,13.7,0s5.8,0.7,5-3.5l-9.2-40.4c-0.8-3.3-4.1-6.1-7.5-6.1h-25.9
			c-3.4,0-6.8,2.9-7.5,6.2L501.8,204c-0.8,3.3-2,3.3-2.7,0.1l-14.4-63.3c-0.8-3.3-4.1-6.2-7.5-6.2h-17.3c-3.4,0-5.5,2.9-4.7,6.2
			l19,81.4c0.8,3.3,4.2,6.4,7.5,6.4h32.4c3.4,0,6.8-3,7.5-6.3l13.6-58.2c0.8-3.3,2-3.4,2.8-0.1l4.1,17.5l0.1,0.1
			C542.3,181.6,542.9,184.5,547.8,184.5z"/>
	</g>
	<g>
		<path fill="#3E3E54" d="M179.9,228c-3.4,0-6.1-2.8-6.1-6.1V107.4c0-3.4,2.8-6.1,6.1-6.1H270c3.4,0,6.1,2.8,6.1,6.1v9
			c0,3.4-2.8,6.1-6.1,6.1h-56.3c-3.4,0-6.1,2.8-6.1,6.1v18.8c0,3.4,2.8,6.1,6.1,6.1h50.5c3.4,0,6.1,2.8,6.1,6.1v7.3
			c0,3.4-2.8,6.1-6.1,6.1h-50.5c-3.4,0-6.1,2.8-6.1,6.1v21.2c0,3.4,2.8,6.1,6.1,6.1h57.6c3.4,0,6.1,2.8,6.1,6.1v9
			c0,3.4-2.8,6.1-6.1,6.1L179.9,228L179.9,228z"/>
	</g>
	<path fill="#A3C136" d="M621.4,135h-17.1c-3.4,0-6.8,2.7-7.5,6l-22.3,63.1c-0.8,3.3-2,3.3-2.7,0l-1.4-6c-1.1-4.5-6.4-4.5-6.4-4.5
		s-7.5,0-13.6,0c-4.4,0-4.5,3-4.2,4.6l5.6,23.7c0.8,3.3,4.2,6,7.6,6h32.2c3.4,0,6.8-2.7,7.6-6l27-81
		C626.9,137.7,624.8,135,621.4,135z"/>
</g>
</svg>
